<?xml version="1.0" encoding="UTF-8" standalone="no"?>
<!DOCTYPE svg PUBLIC "-//W3C//DTD SVG 1.1//EN"
 "http://www.w3.org/Graphics/SVG/1.1/DTD/svg11.dtd">
<!-- Generated by graphviz version 2.47.0 (20210316.0004)
 -->
<!-- Title: dependencies Pages: 1 -->
<svg width="822pt" height="284pt"
 viewBox="0.00 0.00 822.00 284.00" xmlns="http://www.w3.org/2000/svg" xmlns:xlink="http://www.w3.org/1999/xlink">
<g id="graph0" class="graph" transform="scale(1 1) rotate(0) translate(4 280)">
<title>dependencies</title>
<polygon fill="white" stroke="transparent" points="-4,4 -4,-280 818,-280 818,4 -4,4"/>
<text text-anchor="start" x="386.01" y="-42.4" font-family="Times-12" font-weight="bold" font-size="14.00">Legend</text>
<polygon fill="#ffffb3" stroke="transparent" points="173,-10 173,-30 193,-30 193,-10 173,-10"/>
<text text-anchor="start" x="196.63" y="-15.4" font-family="Times-12" font-size="14.00"> &#160;Declarations</text>
<polygon fill="#8dd3c7" stroke="transparent" points="286,-10 286,-30 306,-30 306,-10 286,-10"/>
<text text-anchor="start" x="309.73" y="-15.4" font-family="Times-12" font-size="14.00"> &#160;Module</text>
<polygon fill="#80b1d3" stroke="transparent" points="372,-10 372,-30 392,-30 392,-10 372,-10"/>
<text text-anchor="start" x="395.78" y="-15.4" font-family="Times-12" font-size="14.00"> &#160;Bootstrap</text>
<polygon fill="#fdb462" stroke="transparent" points="469,-10 469,-30 489,-30 489,-10 469,-10"/>
<text text-anchor="start" x="492.67" y="-15.4" font-family="Times-12" font-size="14.00"> &#160;Providers</text>
<polygon fill="#fb8072" stroke="transparent" points="565,-10 565,-30 585,-30 585,-10 565,-10"/>
<text text-anchor="start" x="588.73" y="-15.4" font-family="Times-12" font-size="14.00"> &#160;Exports</text>
<g id="clust1" class="cluster">
<title>cluster_AppModule</title>
<polygon fill="none" stroke="black" stroke-dasharray="1,5" points="8,-70 8,-268 806,-268 806,-70 8,-70"/>
</g>
<g id="clust2" class="cluster">
<title>cluster_AppModule_declarations</title>
<polygon fill="none" stroke="black" points="16,-78 16,-130 798,-130 798,-78 16,-78"/>
</g>
<g id="clust10" class="cluster">
<title>cluster_AppModule_bootstrap</title>
<polygon fill="none" stroke="black" points="372,-208 372,-260 496,-260 496,-208 372,-208"/>
</g>
<!-- AppComponent -->
<g id="node1" class="node">
<title>AppComponent</title>
<polygon fill="#ffffb3" stroke="black" points="789.94,-122 684.06,-122 684.06,-86 789.94,-86 789.94,-122"/>
<text text-anchor="middle" x="737" y="-99.8" font-family="Times,serif" font-size="14.00">AppComponent</text>
</g>
<!-- AppModule -->
<g id="node6" class="node">
<title>AppModule</title>
<polygon fill="#8dd3c7" stroke="black" points="475.66,-187 472.66,-191 451.66,-191 448.66,-187 392.34,-187 392.34,-151 475.66,-151 475.66,-187"/>
<text text-anchor="middle" x="434" y="-164.8" font-family="Times,serif" font-size="14.00">AppModule</text>
</g>
<!-- AppComponent&#45;&gt;AppModule -->
<g id="edge1" class="edge">
<title>AppComponent&#45;&gt;AppModule</title>
<path fill="none" stroke="black" d="M737,-122.28C737,-143.32 737,-175 737,-175 737,-175 485.81,-175 485.81,-175"/>
<polygon fill="black" stroke="black" points="485.81,-171.5 475.81,-175 485.81,-178.5 485.81,-171.5"/>
</g>
<!-- AudioPlayerComponent -->
<g id="node2" class="node">
<title>AudioPlayerComponent</title>
<polygon fill="#ffffb3" stroke="black" points="666.09,-122 513.91,-122 513.91,-86 666.09,-86 666.09,-122"/>
<text text-anchor="middle" x="590" y="-99.8" font-family="Times,serif" font-size="14.00">AudioPlayerComponent</text>
</g>
<!-- AudioPlayerComponent&#45;&gt;AppModule -->
<g id="edge2" class="edge">
<title>AudioPlayerComponent&#45;&gt;AppModule</title>
<path fill="none" stroke="black" d="M590,-122.02C590,-139.37 590,-163 590,-163 590,-163 485.81,-163 485.81,-163"/>
<polygon fill="black" stroke="black" points="485.81,-159.5 475.81,-163 485.81,-166.5 485.81,-159.5"/>
</g>
<!-- FilteredComponent -->
<g id="node3" class="node">
<title>FilteredComponent</title>
<polygon fill="#ffffb3" stroke="black" points="496.38,-122 371.62,-122 371.62,-86 496.38,-86 496.38,-122"/>
<text text-anchor="middle" x="434" y="-99.8" font-family="Times,serif" font-size="14.00">FilteredComponent</text>
</g>
<!-- FilteredComponent&#45;&gt;AppModule -->
<g id="edge3" class="edge">
<title>FilteredComponent&#45;&gt;AppModule</title>
<path fill="none" stroke="black" d="M434,-122.11C434,-122.11 434,-140.99 434,-140.99"/>
<polygon fill="black" stroke="black" points="430.5,-140.99 434,-150.99 437.5,-140.99 430.5,-140.99"/>
</g>
<!-- StationListComponent -->
<g id="node4" class="node">
<title>StationListComponent</title>
<polygon fill="#ffffb3" stroke="black" points="353.28,-122 210.72,-122 210.72,-86 353.28,-86 353.28,-122"/>
<text text-anchor="middle" x="282" y="-99.8" font-family="Times,serif" font-size="14.00">StationListComponent</text>
</g>
<!-- StationListComponent&#45;&gt;AppModule -->
<g id="edge4" class="edge">
<title>StationListComponent&#45;&gt;AppModule</title>
<path fill="none" stroke="black" d="M282,-122.02C282,-139.37 282,-163 282,-163 282,-163 382.06,-163 382.06,-163"/>
<polygon fill="black" stroke="black" points="382.06,-166.5 392.06,-163 382.06,-159.5 382.06,-166.5"/>
</g>
<!-- StationListItemComponent -->
<g id="node5" class="node">
<title>StationListItemComponent</title>
<polygon fill="#ffffb3" stroke="black" points="192.44,-122 23.56,-122 23.56,-86 192.44,-86 192.44,-122"/>
<text text-anchor="middle" x="108" y="-99.8" font-family="Times,serif" font-size="14.00">StationListItemComponent</text>
</g>
<!-- StationListItemComponent&#45;&gt;AppModule -->
<g id="edge5" class="edge">
<title>StationListItemComponent&#45;&gt;AppModule</title>
<path fill="none" stroke="black" d="M108,-122.28C108,-143.32 108,-175 108,-175 108,-175 382.05,-175 382.05,-175"/>
<polygon fill="black" stroke="black" points="382.05,-178.5 392.05,-175 382.05,-171.5 382.05,-178.5"/>
</g>
<!-- AppComponent  -->
<g id="node7" class="node">
<title>AppComponent </title>
<polygon fill="#80b1d3" stroke="black" points="488.44,-252 379.56,-252 379.56,-216 488.44,-216 488.44,-252"/>
<text text-anchor="middle" x="434" y="-229.8" font-family="Times,serif" font-size="14.00">AppComponent </text>
</g>
<!-- AppModule&#45;&gt;AppComponent  -->
<g id="edge6" class="edge">
<title>AppModule&#45;&gt;AppComponent </title>
<path fill="none" stroke="black" stroke-dasharray="1,5" d="M434,-187.11C434,-187.11 434,-205.99 434,-205.99"/>
<polygon fill="black" stroke="black" points="430.5,-205.99 434,-215.99 437.5,-205.99 430.5,-205.99"/>
</g>
</g>
</svg>
